name D:\school\WTK\thesis\model\3dpredictsim\Results\batch_windlass\Pog_s1_tmt_aCst_d05_k500_WL10_ig24_pas.mot
datacolumns 128
datarows 4
range 0.00000000 0.03254605
endheader
time	pelvis_tilt	pelvis_list	pelvis_rotation	pelvis_tx	pelvis_ty	pelvis_tz	hip_flexion_l	hip_adduction_l	hip_rotation_l	hip_flexion_r	hip_adduction_r	hip_rotation_r	knee_angle_l	knee_angle_r	ankle_angle_l	ankle_angle_r	subtalar_angle_l	subtalar_angle_r	tmt_angle_l	tmt_angle_r	mtp_angle_l	mtp_angle_r	lumbar_extension	lumbar_bending	lumbar_rotation	arm_flex_l	arm_add_l	arm_rot_l	arm_flex_r	arm_add_r	arm_rot_r	elbow_flex_l	elbow_flex_r	pro_sup_l	pro_sup_r	glut_med1_l/activation	glut_med2_l/activation	glut_med3_l/activation	glut_min1_l/activation	glut_min2_l/activation	glut_min3_l/activation	semimem_l/activation	semiten_l/activation	bifemlh_l/activation	bifemsh_l/activation	sar_l/activation	add_long_l/activation	add_brev_l/activation	add_mag1_l/activation	add_mag2_l/activation	add_mag3_l/activation	tfl_l/activation	pect_l/activation	grac_l/activation	glut_max1_l/activation	glut_max2_l/activation	glut_max3_l/activation	iliacus_l/activation	psoas_l/activation	quad_fem_l/activation	gem_l/activation	peri_l/activation	rect_fem_l/activation	vas_med_l/activation	vas_int_l/activation	vas_lat_l/activation	med_gas_l/activation	lat_gas_l/activation	soleus_l/activation	tib_post_l/activation	flex_dig_l/activation	flex_hal_l/activation	tib_ant_l/activation	per_brev_l/activation	per_long_l/activation	per_tert_l/activation	ext_dig_l/activation	ext_hal_l/activation	ercspn_l/activation	intobl_l/activation	extobl_l/activation	glut_med1_r/activation	glut_med2_r/activation	glut_med3_r/activation	glut_min1_r/activation	glut_min2_r/activation	glut_min3_r/activation	semimem_r/activation	semiten_r/activation	bifemlh_r/activation	bifemsh_r/activation	sar_r/activation	add_long_r/activation	add_brev_r/activation	add_mag1_r/activation	add_mag2_r/activation	add_mag3_r/activation	tfl_r/activation	pect_r/activation	grac_r/activation	glut_max1_r/activation	glut_max2_r/activation	glut_max3_r/activation	iliacus_r/activation	psoas_r/activation	quad_fem_r/activation	gem_r/activation	peri_r/activation	rect_fem_r/activation	vas_med_r/activation	vas_int_r/activation	vas_lat_r/activation	med_gas_r/activation	lat_gas_r/activation	soleus_r/activation	tib_post_r/activation	flex_dig_r/activation	flex_hal_r/activation	tib_ant_r/activation	per_brev_r/activation	per_long_r/activation	per_tert_r/activation	ext_dig_r/activation	ext_hal_r/activation	ercspn_r/activation	intobl_r/activation	extobl_r/activation	
          0.00000000	         -2.92223173	         -1.66530191	          6.49793970	          0.00000000	          0.85371578	         -0.00302982	        -18.80607081	         -1.72812962	          8.43011963	         32.29050524	          2.56115459	         -2.99027905	         -9.57544424	        -19.46465784	         -2.35160283	         -2.14878204	         11.27508432	         -4.10957530	         -0.19752428	          0.11507508	         26.33009209	         -0.20810803	         -1.06042331	         -0.11374576	         -1.88009331	          4.75578420	        -13.49252194	         15.94149644	         -9.23774981	        -13.67705487	          7.33176684	         36.12884685	         17.86730754	         86.51662706	         86.51662706	          0.24734326	          0.08232145	          0.05000032	          0.30425558	          0.18304596	          0.08267432	          0.05000588	          0.05000046	          0.05000034	          0.06974067	          0.09213738	          0.14364795	          0.05000205	          0.05000125	          0.05000359	          0.05000238	          0.29108303	          0.06032437	          0.05000151	          0.05000665	          0.05000440	          0.05000337	          0.36341506	          0.57971290	          0.05000053	          0.05000177	          0.05000028	          0.23216779	          0.13969362	          0.05000566	          0.09395811	          0.29219763	          0.37935260	          0.25941066	          0.21401240	          0.21315842	          0.29046726	          0.05000001	          0.08377202	          0.15926030	          0.05000014	          0.05000003	          0.05000015	          0.05000003	          0.05000012	          0.05000009	          0.05000289	          0.05000104	          0.05000282	          0.05000098	          0.05000106	          0.05000189	          0.05904119	          0.05904181	          0.15697930	          0.05000076	          0.05000060	          0.11119084	          0.15146004	          0.23732744	          0.19951173	          0.13830163	          0.05000187	          0.05408931	          0.05905290	          0.06370281	          0.15551310	          0.13905044	          0.05905401	          0.06203915	          0.22330111	          0.05000206	          0.05000080	          0.05000057	          0.13025829	          0.13257057	          0.11035349	          0.05904057	          0.05904058	          0.05904056	          0.05000005	          0.05000224	          0.05000214	          0.44802456	          0.27461403	          0.15688215	          0.47997551	          0.62685322	          0.05000104	          0.05039628	          0.11213918	          0.10680217	
          0.01084868	         -2.90995524	         -1.78705523	          6.77458465	          0.01681981	          0.85253336	         -0.00284291	        -18.53683510	         -2.07287607	          8.21715151	         31.67333090	          3.01080306	         -2.74593079	        -11.66114089	        -19.38888881	         -3.29951353	         -2.54826410	         12.36841719	         -4.90213556	         -0.87719451	          0.11198395	         27.39703435	         -0.06531745	         -0.83484866	          0.14495144	         -1.94874312	          4.46052537	        -13.53202659	         16.29204635	        -10.31904897	        -13.67317501	          7.13598110	         37.19101093	         17.76741892	         86.51662706	         86.51662706	          0.20946908	          0.06971605	          0.05000027	          0.25766702	          0.15501721	          0.07001491	          0.05000366	          0.05000050	          0.05000060	          0.05906169	          0.07803002	          0.21847015	          0.17351134	          0.05192929	          0.05000426	          0.05000132	          0.24651145	          0.11762520	          0.05000518	          0.05000211	          0.05000118	          0.05000090	          0.30776732	          0.50678573	          0.05000033	          0.05000297	          0.05904037	          0.19661721	          0.11830532	          0.15337034	          0.13553357	          0.24745496	          0.32126436	          0.21968849	          0.18124188	          0.18051885	          0.24598972	          0.05000098	          0.07094459	          0.13487393	          0.05000067	          0.05000446	          0.05000088	          0.05114154	          0.06971561	          0.05852906	          0.05000068	          0.05000114	          0.05000263	          0.05000051	          0.05000091	          0.05000084	          0.05000061	          0.05000123	          0.13294229	          0.05000047	          0.05003807	          0.09416508	          0.12826798	          0.30615314	          0.24166744	          0.14515246	          0.05000057	          0.05000304	          0.05001086	          0.05904053	          0.17609831	          0.14888286	          0.05001153	          0.05253961	          0.43654431	          0.06733995	          0.05993288	          0.06971565	          0.23683417	          0.22858843	          0.19706080	          0.05000002	          0.05000005	          0.05000000	          0.05000027	          0.05000316	          0.05000041	          0.58067323	          0.23256390	          0.13285966	          0.47775848	          0.65104266	          0.09467357	          0.05000002	          0.09496792	          0.09044813	
          0.02169737	         -2.89350232	         -1.91744538	          7.02280629	          0.03387154	          0.85127758	         -0.00266422	        -18.17380039	         -2.40965867	          7.99362134	         30.91112864	          3.42538306	         -2.41995413	        -13.90028016	        -19.87763240	         -4.37196881	         -2.77795216	         13.38837637	         -5.75106307	         -1.54278505	         -0.09367017	         28.13092774	          0.04800801	         -0.59219302	          0.41804305	         -2.00515390	          4.09305123	        -13.57668342	         16.57225529	        -11.39258654	        -13.67503791	          7.02019265	         38.24543841	         17.65352021	         86.51662706	         86.51662706	          0.27854219	          0.05904086	          0.05000030	          0.21821244	          0.13128036	          0.05929397	          0.06553683	          0.05000042	          0.05000050	          0.05001794	          0.06608213	          0.18652537	          0.28697585	          0.05904436	          0.05904086	          0.09007613	          0.21838116	          0.09961497	          0.05000223	          0.05001922	          0.05002496	          0.05705092	          0.26064061	          0.46661089	          0.05000324	          0.05000194	          0.05000016	          0.16651027	          0.10019032	          0.12988575	          0.11478023	          0.20956350	          0.27207088	          0.18604876	          0.15348933	          0.15287715	          0.20832277	          0.12112514	          0.16719962	          0.16395345	          0.05000052	          0.16709170	          0.10607457	          0.07685975	          0.05904046	          0.05000020	          0.29058833	          0.30583513	          0.39717275	          0.11890616	          0.05000110	          0.30898019	          0.08679513	          0.05000053	          0.12920722	          0.05000016	          0.05000068	          0.08230777	          0.23759658	          0.25927460	          0.22457256	          0.17158582	          0.05000059	          0.06969926	          0.12807258	          0.05000033	          0.22067308	          0.15007321	          0.05904046	          0.05003215	          0.36969870	          0.05702879	          0.22921079	          0.05904050	          0.23787917	          0.24354360	          0.20881045	          0.05904061	          0.05904068	          0.05904059	          0.05000072	          0.05000089	          0.05903826	          0.53095041	          0.19695269	          0.11251560	          0.40460208	          0.60111086	          0.08017675	          0.05000117	          0.08232146	          0.07659830	
          0.03254605	         -2.87591176	         -2.05059737	          7.23907562	          0.05090079	          0.85005260	         -0.00247301	        -17.67274180	         -2.72645209	          7.76543958	         30.00982030	          3.82302605	         -2.07721986	        -16.34484818	        -20.36105326	         -5.50293862	         -2.73142513	         14.30791641	         -6.63093909	         -2.08266514	         -0.36862071	         28.16543839	          0.13298082	         -0.35472164	          0.69544428	         -2.05044746	          3.69987580	        -13.62190742	         16.79697553	        -12.39604310	        -13.67801584	          7.01124478	         39.25149340	         17.48183611	         86.51662706	         86.51662706	          0.23589064	          0.05000033	          0.05000005	          0.18480142	          0.11117822	          0.05021470	          0.09022013	          0.05000126	          0.05000098	          0.05000056	          0.05598667	          0.22134687	          0.24303321	          0.05000375	          0.05000198	          0.07628781	          0.22802721	          0.08436220	          0.05000070	          0.05000132	          0.05000082	          0.05000054	          0.22073016	          0.41747864	          0.05000008	          0.05000048	          0.05000022	          0.14101346	          0.08484880	          0.10999712	          0.09720463	          0.17747416	          0.23041013	          0.15756010	          0.12998645	          0.12946818	          0.17642374	          0.17746582	          0.14159926	          0.13884833	          0.19599923	          0.22180090	          0.08983607	          0.10849280	          0.05000002	          0.05000008	          0.39554174	          0.47965374	          0.55216585	          0.21821827	          0.35230584	          0.34844784	          0.07350540	          0.11299944	          0.10942251	          0.06971547	          0.05000094	          0.06970448	          0.20121473	          0.21957375	          0.21028388	          0.18835254	          0.05000035	          0.05902716	          0.10846602	          0.29438902	          0.27131717	          0.19401538	          0.05000011	          0.05000010	          0.31308891	          0.05115853	          0.19411463	          0.05000005	          0.30408440	          0.31773138	          0.27100471	          0.05000006	          0.05000015	          0.05000003	          0.12392686	          0.05002049	          0.05000093	          0.66393096	          0.16679440	          0.09528671	          0.38395416	          0.61952844	          0.36104887	          0.06914143	          0.06971609	          0.06486922	
